<?xml version="1.0" encoding="UTF-8"?>
<!DOCTYPE svg PUBLIC "-//W3C//DTD SVG 1.1//EN" "http://www.w3.org/Graphics/SVG/1.1/DTD/svg11.dtd">
<!-- Creator: CorelDRAW 2020 (64-Bit) -->
<svg xmlns="http://www.w3.org/2000/svg" xml:space="preserve" width="58.7598mm" height="46.4622mm" version="1.1" style="shape-rendering:geometricPrecision; text-rendering:geometricPrecision; image-rendering:optimizeQuality; fill-rule:evenodd; clip-rule:evenodd"
viewBox="0 0 1035.22 818.57"
 xmlns:xlink="http://www.w3.org/1999/xlink"
 xmlns:xodm="http://www.corel.com/coreldraw/odm/2003">
 <defs>
  <style type="text/css">
   <![CDATA[
    .fil40 {fill:#020629}
    .fil42 {fill:#0C1337}
    .fil17 {fill:#16A3C9}
    .fil38 {fill:#283457}
    .fil0 {fill:#31395D}
    .fil7 {fill:#343C63}
    .fil47 {fill:#344D61}
    .fil35 {fill:#354366}
    .fil27 {fill:#3A446B}
    .fil6 {fill:#3BC7F3}
    .fil26 {fill:#3C4A79}
    .fil18 {fill:#3DC6F4}
    .fil5 {fill:#424C75}
    .fil19 {fill:#424E79}
    .fil37 {fill:#424F79}
    .fil31 {fill:#434A7A}
    .fil9 {fill:#434E7A}
    .fil32 {fill:#44496B}
    .fil8 {fill:#454D79}
    .fil34 {fill:#524B6A}
    .fil41 {fill:#535C86}
    .fil36 {fill:#53667A}
    .fil44 {fill:#5A6487}
    .fil52 {fill:#5DC2D7}
    .fil21 {fill:#656A85}
    .fil25 {fill:#65B59A}
    .fil39 {fill:#68AA9A}
    .fil16 {fill:#6DD1F7}
    .fil3 {fill:#7C809C}
    .fil10 {fill:#7ECBB3}
    .fil51 {fill:#86C8B9}
    .fil46 {fill:#87889A}
    .fil48 {fill:#9097AF}
    .fil49 {fill:#90C8CB}
    .fil45 {fill:#92ACB7}
    .fil43 {fill:#A8ACB7}
    .fil50 {fill:#ACA093}
    .fil15 {fill:#B7C3DA}
    .fil24 {fill:#D5E3EC}
    .fil20 {fill:#D6E1EE}
    .fil4 {fill:#D8E1F0}
    .fil11 {fill:#D9E2EE}
    .fil22 {fill:#DA8E55}
    .fil30 {fill:#E63D40}
    .fil23 {fill:#E7E8E9}
    .fil29 {fill:#EA4849}
    .fil28 {fill:#EB9858}
    .fil1 {fill:#EF5654}
    .fil14 {fill:#F15755}
    .fil13 {fill:#FBAE6D}
    .fil12 {fill:#FBB06E}
    .fil33 {fill:#FCFCFA}
    .fil2 {fill:#FEFEFD}
   ]]>
  </style>
 </defs>
 <g id="Layer_x0020_1">
  <metadata id="CorelCorpID_0Corel-Layer"/>
  <g id="_2366585126352">
   <path class="fil0" d="M56.26 608.69l327.1 188.83c21.27,12.34 46.04,30.85 75.91,14.77 21.7,-11.68 43.22,-25.87 64.97,-37.9 84.23,-46.6 175.57,-103.21 261.3,-151.79 22.01,-12.47 42.75,-25.1 65.01,-37.89l163.27 -94.73c20.89,-12.05 21.62,-13.35 21.38,-29.54 0.05,-14.46 -6.03,-15.9 -15.86,-21.47l-114.92 -66.34c-13.27,-7.61 -32.88,-20.31 -45.48,-25.73 3.07,-4.23 0.71,-1.63 5.38,-4.94 3.25,-2.3 3.14,-1.69 5.75,-4.12 6.86,-1.91 12.6,-6.37 19.18,-10.07l16.22 -10.61c2.21,-2.7 0.74,0.48 1.99,-3.89 3.02,-10.55 -4.32,-11.45 -14.67,-17.22l-67.31 -39.66 0.39 -15.07 -0.08 -53.37 -0.64 -26.67c-10.15,-2.96 -17,-10.46 -26.94,-14.15l-0.58 -87.41 -5.62 -3.56c-7.45,2.01 -29.73,16.03 -37.61,20.55 -12.17,6.98 -24.47,14.31 -36.93,21.5 -7.52,-1.51 -112.15,-63.51 -127.36,-72.55 -50.81,-30.2 -42.37,-30.41 -63.12,-17.83l-313.73 181.73 -0.53 22.87 0.63 193.39 -5.05 1.95c-12.55,9.72 -12.91,6.95 -13.87,27.15 -7.76,2.08 -41.5,23.22 -50.98,28.67 -16.99,9.79 -32.85,19.35 -50.57,29.46 -17.08,9.75 -33.95,19.65 -50.65,29.36 -25.18,14.65 -40.76,18.81 -42.25,37.49 0.29,22.79 6.3,19.56 23.22,29.49 10.82,6.35 21.49,12.62 33.04,19.26z"/>
   <g>
    <path class="fil1" d="M231.04 649.04c13.57,-3.12 32.66,0.4 39.19,8.38 11.13,13.59 -6.83,23.37 -18.13,25.53 -37.06,7.08 -59.06,-25.18 -21.06,-33.9zm610.33 -292.53c5.13,3.9 6.51,3.09 9.88,7.8 -1.75,6.13 -5.52,8.35 -13.06,7.35 -10.79,-1.43 -11.63,-5.66 -12.89,-8.5 -3.55,-0.73 -2.55,-1.09 -1.26,2.44l1.25 9.67c22.71,16.53 126.95,69.85 139.3,81.87l-12.47 7.05c-34.47,21.59 -71.56,41.77 -106.19,61.85 -34.92,20.24 -70.39,40.44 -105.45,61.08 -70.26,41.36 -140.19,82.61 -210.6,122.49 -18.39,10.42 -35.91,20.39 -53.69,31.24 -19.7,12.02 -17.26,11.72 -27.4,5.79l-289.76 -167.48c-9.06,-5 -47.66,-25.97 -51.73,-30.17 -5.1,-2.02 -9.41,-3.87 -13.7,-7.92l90.95 -52.34c0.5,-7.9 0.58,-14.49 4.24,-20.58 4.29,-7.14 6.54,-5.81 13.45,-10.78 -0.22,-1.12 -6.77,-20.24 -7.8,-22.43 -7.76,2.08 -41.5,23.22 -50.98,28.67 -16.99,9.79 -32.85,19.35 -50.57,29.46 -17.08,9.75 -33.95,19.65 -50.65,29.36 -25.18,14.65 -40.76,18.81 -42.25,37.49 8.64,8.75 10.4,9.26 22.03,15.73l393.69 226.94c23.39,9.05 40.37,-1.52 57,-11.26l184.88 -107.45c11.45,-6.59 86.57,-51.74 91.87,-51.82 3.16,-4.02 1.11,-2.85 6.62,-5.07 24.07,-15.09 46.5,-27.03 70.91,-41.49 32.69,-19.37 193.43,-107.77 208.18,-125.08 0.05,-14.46 -6.03,-15.9 -15.86,-21.47l-114.92 -66.34c-13.27,-7.61 -32.88,-20.31 -45.48,-25.73 -6.08,0.66 -13.35,5.32 -17.57,9.6z"/>
    <path class="fil2" d="M804.94 513.27l-3.47 -0.36c-4.17,5.08 -85.01,51.64 -94.39,55.51l-159.09 92.38c-8.67,5.53 -17.94,10.2 -27.08,15.54 -7.7,4.49 -22.4,15.33 -27.79,13.19 -2.45,-2.51 -17.09,-10.9 -20.31,-11.71 -6.02,-0.41 -6.84,4.96 -20.21,3.01l-1.4 33.36c-4.29,2.78 -2.77,3.04 -7.08,1.59 -3.4,-8.77 -1.61,-29.81 -0.84,-40.24 -8.45,-3.26 -10.73,-6.66 -15.66,-13.9l-10.74 -17.67c-5.05,-1.72 -5.86,-3.16 -10.64,-4.86 4.97,6.89 10.15,18.44 5.6,29.01 -5.04,7.77 -8.17,4.43 -14.31,8.07 -0.72,5.32 -0.2,14.57 -1.97,18.79l-4.12 1.09 -0.41 -22.99 0.16 -1.63c-10.51,-5.08 -19.34,-21.65 -16.98,-34.17 1.14,-6.04 4.08,-6.74 7.8,-10.07l-2.56 -5.5c-8.29,-1.53 -52.16,-29.26 -63.69,-35.84 -10.03,-5.72 -20.12,-11.92 -30.94,-18.05 -9.02,-5.12 -22.95,-12.09 -31.4,-18.82 -11.87,3.4 -7.9,3.62 -23.17,4.46l-0.06 38.89 -6.55 2.24c-5.79,-3.5 -4.25,-2.5 -4.24,-11.37 0,-3.71 0.22,-7.7 0.23,-11.52 0.02,-8.02 -0.34,-16.22 0.54,-24.16 -15.38,-10.78 -26.17,-25.44 -33.19,-47.46 -13.13,6.56 -27.74,16.71 -41.93,24.06l-31.01 18.05c-9.06,5.2 -6.72,4.22 -6.8,6.84 4.06,4.2 42.67,25.17 51.73,30.17l289.76 167.48c10.14,5.93 7.7,6.23 27.4,-5.79 17.78,-10.85 35.3,-20.82 53.69,-31.24 70.4,-39.88 140.34,-81.13 210.6,-122.49 35.06,-20.64 70.53,-40.83 105.45,-61.08 34.64,-20.09 71.72,-40.26 106.19,-61.85 -1.82,-4.61 1.17,-1.8 -4.62,-5.81l-93.58 -53.56c-23.5,-12 -29.03,-26.87 -28.74,-3.07 0.08,6.57 0.07,13.13 0.05,19.7 -0.31,96.38 7.83,71.64 -20.28,91.81z"/>
    <path class="fil3" d="M212.72 212.46c0.55,0.29 1.28,0.11 1.61,0.92 0.29,0.72 2.23,1.28 2.99,1.73l161.95 94.77c9.09,5.24 19.16,11.32 28.19,15.91l27.25 16.97 47.78 27.25c18.83,11.35 8.5,9.34 49.5,-12.67l97.54 -55.89c54.49,-33.5 139.53,-82.02 196.24,-113.49l-0.64 -26.67c-10.15,-2.96 -17,-10.46 -26.94,-14.15 0.35,8.24 -2.62,7.6 -9.7,11.36 -4.98,2.64 -9.68,5.21 -14.61,8.17 -9.17,5.51 -18.59,10.74 -28.19,16.47 -2.64,8.01 0.28,26.87 -1.26,35.57l-0.72 2.55c-1.5,5.59 -22.17,15.14 -28.54,18.41l-8.04 -4.23c-0.18,-8.97 1.87,-24.07 -0.15,-28.85 -12.84,4.44 -132.19,75.62 -132.99,76.56 -3.84,9.87 -1.32,27.43 -1.57,38.69l-23.59 14.99c-0.07,0.04 -4.07,1.9 -4.27,1.93l-4.79 -0.77 -4.18 -2.99c-1.88,-12.01 0.88,-24.47 -2.01,-29.05 -7.14,2.73 -18.34,10.02 -25.7,14.37 -4.63,2.74 -8.44,5.14 -13.51,7.94 -6.74,3.72 -6.71,2.43 -13.63,-1.35l-0.41 -10.05 -83.07 -47.84c-9.9,-6.2 -18.14,-9.81 -27.84,-16.31l-54.97 -31.41c-9.47,-5.96 -18.57,-10.74 -27.85,-16.27 -9.43,-5.63 -11.97,-8.53 -20.48,-12.27l-7.09 -4.82c8.08,-6.31 47.28,-25.92 59.42,-34.15l216.01 -125.42c12.25,-7.07 9.8,-2.43 30.73,8.87 3.98,2.15 6.72,2.76 9.59,6.68 39.31,21.33 78,45.25 117.52,67.64l25.13 -13.34c-7.52,-1.51 -112.16,-63.51 -127.36,-72.55 -50.81,-30.2 -42.37,-30.41 -63.12,-17.83l-313.73 181.73 -0.53 22.87z"/>
    <path class="fil4" d="M481.3 287.34l-0.72 -54.78c9,-1.59 173.37,-100.39 186.14,-104.43 -6.49,-9.15 -98.39,-55.18 -103.39,-62.75 -9.41,-2.95 -14.26,-8.78 -23.5,-11.2 -9.07,8.42 -196.33,111.71 -229.8,133.79 5.42,5.61 116.22,68.56 127.41,75.16 7.91,4.67 36.88,23.3 43.86,24.22z"/>
    <path class="fil5" d="M420.59 358.79c-2.35,-0.53 -9.65,-0.39 -8.32,-8.65 6.82,-1.26 7.25,0.91 8.32,8.65zm-207.23 47.06c12.68,0.29 14.35,3.1 23.41,9.42l2.31 1.55 0.07 -99.09 57.75 30.7c9.5,4.53 21.18,11.26 29.71,16.06 9.94,5.58 18.32,10.11 28.48,15.66 14.66,7.99 110.78,57.79 115.08,62.86 2.88,19.05 0.34,65.49 0.34,87.85 0,14.69 0.09,29.41 -0.04,44.09 -0.12,13.29 7.14,32.8 -2.74,37.99 -1.3,4.08 -1.22,4.02 2.9,10.57 7.86,12.49 10.87,22.07 9.65,37.26 7.91,1.75 9.58,5.07 15.97,7.12l-0.08 -238.41c5.45,-1.86 27.69,-15.27 29.28,-16.71l0.45 -4.07c1.8,-9.62 4.55,-11.86 5.24,-13.24l0.95 -5.02c-3.76,-2.81 5.49,-4.96 -7.61,-1.86 -1.5,0.36 -3.55,2.78 -4.5,4.04 -3.47,4.6 -17.19,21.87 -22.53,20.7l-0.83 -16.7c-13.18,-6.98 -65.3,-40.5 -73.05,-42.98 8.49,0.08 1.5,-0.72 4.47,-4.68 4.62,-6.16 2.45,3.4 6.65,-6.19l-27.25 -16.97c-9.02,-4.59 -19.1,-10.66 -28.19,-15.91l-161.95 -94.77c-0.76,-0.45 -2.7,-1.01 -2.99,-1.73 -0.33,-0.82 -1.06,-0.64 -1.61,-0.92l0.63 193.39z"/>
    <path class="fil0" d="M540.03 248.86c0.39,-13.88 2.77,-16.73 13.86,-22.82 7.58,-4.15 16.63,-11.28 25.96,-11.86 0.94,9.62 -0.97,8.67 -8.29,12.92 -13.54,7.85 -10.21,-2 -13.94,8.48l22.6 -4.34c-0.04,6.03 1.23,11.17 -1.93,15.88 -0.05,0.07 -4.36,4.47 -4.74,4.8 -5.88,5.02 -25.85,16.36 -33.48,16.61 -1.23,-12.74 -0.81,-10.46 10.69,-16.42 8.05,-4.17 7.58,-1.5 7.65,-1.5 1.07,-0.04 3.86,3.4 3.8,-5.92l-22.16 4.18zm34.05 -58.18c0.11,-0.61 0.49,-0.75 0.78,-1.08l3.02 6.52 -4.74 6.78c-3.22,-1.57 -4.51,-2.55 -6.72,-4.55l7.67 -7.66zm89.32 -24.42c2.04,4.91 6.49,29.88 -7.8,38.73 -4.62,2.86 -26.32,17.28 -30.03,13.8 -1.48,-1.39 -8.05,-28.45 7.05,-38.15 6.02,-3.87 24.43,-15.24 30.78,-14.38zm-79.74 47.83c1.01,-9.41 35.56,-25.14 36.22,-25.33l-0.18 7.75c-4.25,1.82 -4.02,1.68 -8.65,5.08l-0.36 29 -17 9.57 -0.7 -27.73c-0.38,0.15 -4.51,1.98 -4.66,2.02 -5.04,1.04 -1.81,0.93 -4.67,-0.35zm85.24 -17.39c0.46,-26.74 -3.97,-34.68 6.22,-40.41 8.35,-4.7 24.04,-16.73 33.04,-15.46 1.96,7.61 0.75,9.38 -3.3,14.49 4.87,8.23 4.27,3.56 4.16,17.96 -5.21,4.21 -11.35,7.91 -17.47,10.22 0.16,-14.46 -0.41,-11.3 -3.85,-13.98 -3.29,7.55 1.72,14.45 -4.18,19.28 -3.8,3.11 -11.14,5.74 -14.61,7.9zm76.99 -68.71l0.95 7.5c-9.62,6.7 -14.83,4.09 -15.61,17 5.56,-1.76 11.68,-5.76 16.61,-8.9 2.37,10.39 -5.22,11.3 -13.62,15.85 -6.28,3.4 -14.11,8.85 -20.69,11.21l0.29 -36.76 34.01 -19.49c1.51,5.49 0.94,5.66 -1.36,10.64 0.12,0.1 0.29,0.32 0.29,0.36 0,0.06 0.03,0.53 0.03,0.59 -0.01,0.17 -0.63,1.53 -0.91,1.99zm-182.57 -62.61c5.01,7.58 96.9,53.6 103.39,62.75 -12.77,4.05 -177.14,102.85 -186.14,104.43l0.72 54.78c-3.44,14.16 0.94,26.97 -0.53,39.59 6.93,3.79 6.89,5.08 13.63,1.35 5.07,-2.8 8.88,-5.2 13.51,-7.94 7.36,-4.35 18.56,-11.64 25.7,-14.37l9.04 -5.22c4.48,-3.88 26.16,-15.65 31.36,-17.59 0.79,-0.95 120.15,-72.12 132.99,-76.56 2.51,-3.58 3.29,-1.66 7.27,-5.1 3.86,-4.24 25.82,-16.06 31.44,-18.35 9.6,-5.72 19.02,-10.95 28.19,-16.47 4.92,-2.96 9.62,-5.53 14.61,-8.17 7.08,-3.76 10.05,-3.12 9.7,-11.36l-0.58 -87.41 -5.62 -3.56c-7.45,2.01 -29.73,16.03 -37.61,20.55 -12.17,6.98 -24.47,14.31 -36.93,21.5l-25.13 13.34c-39.52,-22.39 -78.21,-46.31 -117.52,-67.64l3.62 7.18c-13.7,4.89 -4.46,-0.27 -9.3,7.45 -1.35,2.14 2.83,4.56 -3.25,2.18l-2.57 4.61z"/>
    <path class="fil6" d="M248.77 431.64c2.23,2.85 3.91,7.14 4.54,11.4l2.77 5.66 0.25 8.9 177.91 101.09c13.62,-1.66 9.88,0.36 19.29,3.86l0.68 -111.55c1.11,-4.23 -0.25,-1.35 1.87,-4.07 -7.45,-4.77 -16.76,-8.73 -26.41,-14.14 -8.81,-4.94 -16.47,-9.47 -25.49,-13.78 -23.69,-11.31 -75.77,-40.99 -102.88,-55.47 -8.16,-4.36 -44.5,-25.25 -50.99,-26.46 -0.5,10.15 2.5,86.56 -1.54,94.57z"/>
    <path class="fil7" d="M537.21 393.73c-2.53,-1.6 -5.4,-3.59 -8.16,-4.93l3.91 -10.47 4.57 1.6c0.08,-0.01 0.33,-0.1 0.41,-0.14 0.14,-0.07 0.36,-0.42 0.5,-0.53l3.65 -3.5c1.35,2.38 0.46,1.16 2.84,3.17l4.28 3.35 -3.2 2.37c-0.22,0.21 -0.61,0.59 -0.84,0.83l-7.97 8.25zm-102.5 -50.97c-4.2,9.59 -2.03,0.02 -6.65,6.19 -2.97,3.96 4.02,4.77 -4.47,4.68 7.76,2.48 59.87,36 73.05,42.98l0.83 16.7c5.34,1.17 19.06,-16.1 22.53,-20.7 0.95,-1.26 2.99,-3.68 4.5,-4.04 13.1,-3.11 3.86,-0.95 7.61,1.86l-0.95 5.02c-0.7,1.38 -3.44,3.61 -5.24,13.24l-0.45 4.07c11.51,-4.96 27.33,-15.22 38.33,-21.71 12.38,-7.31 25.27,-14.5 37.34,-21.49 44.74,-25.89 107.78,-60.47 149.09,-86.01 10.27,-6.35 68.14,-40.6 75.64,-42.22l-0.08 -53.37c-56.71,31.47 -141.75,79.98 -196.24,113.49l-97.54 55.89c-41,22.01 -30.67,24.01 -49.5,12.67l-47.78 -27.25z"/>
    <path class="fil4" d="M516.41 659.59c-0.23,-12.91 7.57,-13.11 16.85,-18.43 21.84,-12.51 147.35,-86.32 155.89,-88.94 0.65,11.97 0.51,9.61 -16.73,19.17 -21.13,11.72 -147.21,88.01 -156.01,88.2zm9.05 -246.82c-1.6,1.44 -23.83,14.85 -29.28,16.71l0.08 238.41c-6.39,-2.05 -8.06,-5.37 -15.97,-7.12l-0.16 5.68 16.01 9.73 0 6.53c0.32,13.19 1.13,3.28 -3,6.8 5.4,2.14 20.09,-8.69 27.79,-13.19 9.14,-5.34 18.41,-10 27.08,-15.54l159.09 -92.38 -0.71 -134.23 0.08 -1.03 -16.72 9.9 -1.48 100.46c-17.6,9.15 -162.95,96.75 -172.3,98.49l0.47 -10.99 0.3 -177.15 -12.17 -7.79 0.11 -11.31c5.14,-6.69 32.93,-20.11 40.52,-25.02l37.86 -20.81 40.93 -24.53 38.67 -21.5c4.1,-3.86 33.04,-20.46 39.55,-23.3l35.96 -20.6 41.81 -25.14c7.79,-3.4 13.81,-7.6 22.03,-12.18 11.19,-6.23 11.71,-10.51 23.47,-5.27l0.39 -15.07c-7.5,1.61 -65.37,35.87 -75.64,42.22 -41.31,25.54 -104.35,60.12 -149.09,86.01 -12.08,6.99 -24.96,14.18 -37.34,21.49 -11,6.49 -26.82,16.76 -38.33,21.71z"/>
    <path class="fil8" d="M480.77 326.93c1.47,-12.62 -2.9,-25.42 0.53,-39.59 -6.98,-0.92 -35.94,-19.55 -43.86,-24.22 -11.18,-6.61 -121.98,-69.55 -127.41,-75.16 33.47,-22.09 220.73,-125.37 229.8,-133.79 9.24,2.43 14.08,8.26 23.5,11.2l2.57 -4.61c6.07,2.38 1.9,-0.04 3.25,-2.18 4.84,-7.72 -4.4,-2.57 9.3,-7.45l-3.62 -7.18c-2.87,-3.91 -5.61,-4.53 -9.59,-6.68 -20.92,-11.3 -18.47,-15.94 -30.73,-8.87l-216.01 125.42c-12.14,8.22 -51.34,27.84 -59.42,34.15l7.09 4.82c8.51,3.74 11.05,6.64 20.48,12.27 9.27,5.54 18.37,10.31 27.85,16.27l54.97 31.41c9.69,6.5 17.93,10.11 27.84,16.31l83.07 47.84 0.41 10.05z"/>
    <path class="fil9" d="M756.1 627.03l-0.13 4.92 -6.49 0.15c-5.31,0.08 -80.42,45.23 -91.87,51.82l-184.88 107.45c-16.63,9.74 -33.62,20.31 -57,11.26l-393.69 -226.94c-11.63,-6.47 -13.39,-6.99 -22.03,-15.73 0.29,22.79 6.3,19.56 23.22,29.49 10.82,6.35 21.49,12.62 33.04,19.26l327.1 188.83c21.27,12.34 46.04,30.85 75.91,14.77 21.7,-11.68 43.22,-25.87 64.97,-37.9 84.23,-46.6 175.57,-103.21 261.3,-151.79 22.01,-12.47 42.75,-25.1 65.01,-37.89l163.27 -94.73c20.89,-12.05 21.62,-13.35 21.38,-29.54 -14.75,17.31 -175.5,105.71 -208.18,125.08 -24.41,14.46 -46.84,26.4 -70.91,41.49z"/>
    <path class="fil6" d="M721.71 431.67c0.8,13.04 3.31,20.03 -8.84,22.66l0.58 -19.7 8.26 -2.96zm69.76 -48.8c-0.9,2.7 1.64,1.73 -2.23,2.33 -2.07,2.99 2.43,2.4 -1.81,2.93l-3.92 1.15 -11.05 5.45c-1.51,2.11 -0.55,1.21 -2.8,3.01 -3.42,2.75 4.21,-1.3 -2.76,1.12l-17.37 9.18c-1.28,1.79 -0.48,1.1 -2.67,2.88 -3.52,2.87 3.76,-1.3 -2.71,1.18l-5.64 2.11c-2.72,4.02 -0.64,2.69 -5.66,4.53l-5.74 2.31c-1.74,2.35 -0.43,1.1 -2.92,3.09 -2.98,2.38 1.97,-0.53 -2.78,1.12l-5.55 2.53c-2.5,2.86 3.25,2.15 -2.08,2.79l-3.71 0.63 -3.71 3 0.71 134.23c9.38,-3.87 90.22,-50.43 94.39,-55.51l-0.9 -0.01c-2.06,-18.42 -0.66,-47.46 -0.59,-66.95l-0.98 -64.5c-0.09,-0.31 -0.27,-0.85 -0.47,-1.24l-7.07 2.65z"/>
    <path class="fil6" d="M516.43 631.02l2.07 -0.81c-6.15,-8.47 6.55,-12.69 12.4,-15.85l60.85 -35.57c12.85,-7.12 26.68,-14.98 40.49,-23.25 6.59,-3.95 12.79,-7.17 19.58,-11.24 5.84,-3.51 16.24,-8.41 20.52,-11.65l-0.03 -62.89c-10.16,16.17 -22.66,61.51 -33.81,69.31 -7.58,5.31 -16.79,1.41 -19.49,-6.57 -1.34,-8.11 17.2,-48.62 22.28,-57.8l-3.25 -0.57 -3.76 0.05 -4.02 3.18 -4.96 2.87c-1.19,2.4 0.19,1.74 -3.51,2.98l-3.93 12.25c-7.8,18.49 -26.6,62.7 -36.22,76.47 -27.94,1.63 -18.75,-18.28 -11.35,-34.11 3.41,-7.3 6.51,-12.69 9.64,-21.31 3.32,-9.15 9.66,-13.67 6.27,-22.78l-0.31 -0.54 -3.25 -1.19c-2.73,0 -1.97,0.64 -1.97,-2.23l-1.17 1.06 -4.36 0.84c-1.84,5.33 -3.55,14.33 -9.73,16.87 -7.44,3.06 -13.4,-0.62 -18.39,-5.02 -2.9,-15.92 3.66,-16.04 6,-28.58l0.34 -1.82 -5.56 -2.37 -5.23 -3.18 -7.09 -3.07 -4.8 -3.27 -6.52 -3.22 -4.92 -3.5 -2.53 -0.65 -0.3 177.15z"/>
    <path class="fil5" d="M264.98 534.38c8.26,5.42 19.71,11.01 28.72,16.54 9.61,5.89 19.81,11.45 29.96,17.33 19.85,11.49 40.63,23 60.1,34.65 16.47,-1.08 15.53,4.58 24.33,14.66l3.81 1.89c6.85,-8.63 4.12,-16.34 17.48,-16.99 -5.51,-13.15 -9.52,-15.86 -6.47,-31.94 -6.01,-1.12 -161.19,-88.57 -171.45,-96.69 -5.65,3.6 -6.44,-4.46 -1.06,7.09 1.12,2.41 5.47,5.93 10.54,19.24 6.39,16.78 2.4,19.61 4.04,34.23z"/>
    <path class="fil10" d="M194.44 434.96c1.03,2.19 7.57,21.31 7.8,22.43 -6.91,4.97 -9.16,3.64 -13.45,10.78 -3.66,6.09 -3.74,12.69 -4.24,20.58l2.49 11.31c7.01,22.02 17.81,36.68 33.19,47.46 -0.31,-66.87 -4.01,-30.09 -19.77,-73.08 7.71,2.46 -0.23,-4.76 10.84,13.35 2.8,4.58 5.16,9.32 8.44,12.97l0.24 -18.94c0.82,-4.91 0.78,-3.79 2.09,-5.5 5.89,9.21 2.44,29.9 2.1,41.45 9.71,-7.53 9.63,-17.36 17.69,-21.28 2.28,5.79 -0.18,8.34 -3.58,12.95 -3.15,4.28 -4.92,6.74 -7.51,10.47 -6.48,9.33 -9.42,15.25 -6.15,30.35l5.68 3.18c15.27,-0.83 11.29,-1.05 23.17,-4.46l-0.34 -2.18c6.81,-15.74 9.23,-30.59 -2.85,-52.58 -2.86,-5.2 -6.06,-8.42 -8.83,-13.99 3.99,-6.19 3.23,-0.58 6.48,-8.38 7.96,-19.11 -9.28,-51.36 -26.79,-59.16l-12.83 -4.89c-12.55,9.72 -12.91,6.95 -13.87,27.15z"/>
    <path class="fil10" d="M459.81 566.02c-7.08,-2.25 -1.81,1.66 -6.28,-3.48 -9.41,-3.5 -5.67,-5.52 -19.29,-3.86 -3.4,2.04 -3.02,2.52 -7.69,1.94 -1.32,4.65 -3.53,7.49 -3.64,9.88 -3.04,16.08 0.96,18.79 6.47,31.94 -13.36,0.65 -10.63,8.36 -17.48,16.99l0.81 8 4.19 16.53 10.74 17.67c4.92,7.23 7.21,10.64 15.66,13.9 -1.74,-50.82 3.27,-18.11 -16.59,-59.3 5.77,-0.41 1.54,-1.6 4.83,2.39 0.63,0.76 2.17,4.3 3.39,6.4 2.3,3.94 5.36,9.26 7.62,11.82l0.92 -20.05c6.67,5.6 3.11,26.09 3.15,34.72 6.14,-4.58 8.36,-15.7 14.62,-16.97 3.21,10.54 -14.52,16.35 -14.99,33.5 -0.54,19.8 10.3,2.37 4.98,46.14l1.4 -33.36c13.37,1.96 14.19,-3.42 20.21,-3.01 0.29,-0.57 0.7,-2.02 0.84,-1.72 0.13,0.28 0.58,-1.21 0.74,-1.61 1.4,-3.56 0.25,-0.25 1.3,-3.79 -4.82,1.23 1,-2.75 -0.62,-17.33 -1.41,-12.75 -5.44,-17.82 -10.88,-28.45 -3.5,-6.82 -1.79,-8.56 3.53,-11.96 9.88,-5.19 2.62,-24.7 2.74,-37.99 0.13,-14.68 0.04,-29.4 0.04,-44.09 0,-22.36 2.54,-68.8 -0.34,-87.85l-0.61 140.18c-1.68,-5.47 -7.21,-13.72 -9.76,-17.17z"/>
    <path class="fil4" d="M239.08 416.83c1.95,3.17 2.28,3.12 4.38,5.98 2.69,3.68 2.68,4.31 5.3,8.82 4.04,-8.01 1.04,-84.42 1.54,-94.57 6.5,1.21 42.84,22.11 50.99,26.46 27.11,14.48 79.19,44.16 102.88,55.47 9.02,4.31 16.68,8.84 25.49,13.78 9.65,5.41 18.96,9.37 26.41,14.14 5.99,2.1 3.17,20.72 3.17,26.79 0,10.34 0,20.68 0,31.03 0,18.5 -1.41,43.63 0.56,61.28 2.55,3.45 8.08,11.7 9.76,17.17l0.61 -140.18c-4.3,-5.07 -100.43,-54.87 -115.08,-62.86 -10.16,-5.55 -18.54,-10.08 -28.48,-15.66 -8.53,-4.79 -20.21,-11.52 -29.71,-16.06l-57.75 -30.7 -0.07 99.09z"/>
    <path class="fil11" d="M804.97 378.2l-0.03 135.08c28.11,-20.17 19.97,4.57 20.28,-91.81 0.02,-6.57 0.03,-13.13 -0.05,-19.7 -0.29,-23.79 5.24,-8.93 28.74,3.07l93.58 53.56c5.79,4.02 2.8,1.2 4.62,5.81l12.47 -7.05c-12.35,-12.02 -116.59,-65.34 -139.3,-81.87l-1.25 -9.67c-6.25,3.17 -16.05,7.12 -19.06,12.59z"/>
    <path class="fil12" d="M504.67 434.78c7.31,0.69 79.23,43.69 89.83,50.7 6.68,-0.97 13.03,-6.84 19.06,-10.49 5.23,-3.17 15.02,-8.66 20.11,-10.52 -5.11,-6.5 -35.17,-22.1 -44.81,-27.68l-43.67 -27.02c-7.58,4.91 -35.38,18.33 -40.52,25.02z"/>
    <path class="fil12" d="M662.65 342.91c7.79,7.95 78.37,44.58 87.62,52.41l0.26 -0.2c7.29,-2.79 12.45,-5.98 19.42,-10.2 2.98,-1.81 6.09,-3.71 9.19,-5.48 1.17,-0.67 4.28,-2.23 5.33,-2.95l4.74 -4.56c-14.5,-8.57 -27.92,-16.29 -43.38,-25.19 -7.33,-4.22 -13.5,-8.14 -21.56,-12.71 -6.65,-3.77 -17.64,-8.48 -22.07,-14.43 -6.51,2.84 -35.45,19.45 -39.55,23.3z"/>
    <path class="fil12" d="M738.16 299c7.69,0.53 38.09,20.03 45.6,24.52 7.05,4.22 14.44,8.2 21.62,12.65 7.56,4.68 15.5,7.8 22.87,13.5l0.61 0.02 34.38 -18.43c3.56,-2.39 2.58,-0.54 4.05,-4.55 -12.18,-9 -31.16,-18.09 -44.43,-26.02 -6.8,-4.06 -38.58,-20.89 -42.9,-26.83l-41.81 25.14z"/>
    <path class="fil13" d="M583.05 388.94c12.99,5.31 31.76,17.84 44.78,25.19 11.42,6.45 33.12,21.08 43.53,24.59 7.13,1.68 23.23,-10.07 30.28,-14.48 8.6,-5.39 6.72,-2.52 9.86,-7.73 -12.64,-4.68 -32.17,-18.3 -45.55,-25.78 -7.49,-4.18 -14.91,-8.26 -21.85,-12.48 -6.79,-4.13 -17.53,-7.96 -20.11,-13.84l-40.93 24.53z"/>
    <path class="fil1" d="M623.98 364.41c2.58,5.89 13.32,9.72 20.11,13.84 6.95,4.22 14.37,8.3 21.85,12.48 13.38,7.48 32.91,21.1 45.55,25.78l0.48 1.8 28.14 -16.13c2.15,-1.32 3.36,-1.77 5.08,-2.86l5.08 -4c-9.25,-7.83 -79.83,-44.46 -87.62,-52.41l-38.67 21.5z"/>
    <path class="fil14" d="M779.97 273.86c4.31,5.95 36.1,22.77 42.9,26.83 13.27,7.93 32.25,17.02 44.43,26.02l1.37 0.11c13.2,-8.08 22.04,-14.57 37.82,-21.09l-1.02 11.45c2.21,-2.7 0.74,0.48 1.99,-3.89 3.02,-10.55 -4.32,-11.45 -14.67,-17.22l-67.31 -39.66c-11.76,-5.23 -12.28,-0.95 -23.47,5.27 -8.22,4.58 -14.24,8.78 -22.03,12.18z"/>
    <path class="fil1" d="M702.2 319.6c4.43,5.95 15.42,10.66 22.07,14.43 8.06,4.57 14.23,8.49 21.56,12.71 15.46,8.9 28.88,16.62 43.38,25.19l1.22 0.87 35.94 -21.67c0.26,-0.17 0.75,-0.57 0.95,-0.72 0.2,-0.15 0.65,-0.47 0.94,-0.74 -7.37,-5.7 -15.32,-8.83 -22.87,-13.5 -7.18,-4.44 -14.57,-8.43 -21.62,-12.65 -7.51,-4.49 -37.91,-24 -45.6,-24.52l-35.96 20.6z"/>
    <path class="fil1" d="M545.19 409.76l43.67 27.02c9.64,5.58 39.7,21.18 44.81,27.68 7.26,-5.67 34.65,-19.26 37.89,-23.33l-0.2 -2.4c-10.41,-3.51 -32.11,-18.15 -43.53,-24.59 -13.02,-7.35 -31.79,-19.87 -44.78,-25.19l-37.86 20.81z"/>
    <path class="fil15" d="M680.12 449.32l0.11 87.62 -161.73 93.27 -2.07 0.81 -0.47 10.99c9.35,-1.73 154.69,-89.34 172.3,-98.49l1.48 -100.46 -9.61 6.26z"/>
    <path class="fil4" d="M251.45 473.82c10.26,8.11 165.44,95.56 171.45,96.69 0.11,-2.39 2.32,-5.23 3.64,-9.88l-84.06 -47.28c-14.23,-7.89 -29.07,-16.15 -42.78,-24.19 -11.06,-6.48 -32.65,-17.08 -40.97,-23.92 -4.62,1.31 -2.52,0.19 -5.48,3.96 -1.11,1.42 -1.8,4.2 -1.81,4.63z"/>
    <path class="fil16" d="M638.06 474.13l3.25 0.57c-5.09,9.18 -23.62,49.69 -22.28,57.8 2.7,7.98 11.91,11.88 19.49,6.57 11.15,-7.81 23.64,-53.14 33.81,-69.31l0.5 -15.43 -2.15 -0.02c-5.87,2.17 -10.45,5.49 -16.45,9.05 -6.52,3.87 -12.48,6.09 -16.16,10.78z"/>
    <path class="fil16" d="M608.02 491.13l-11.67 5.64 -10.14 -3.03c3.38,9.11 -2.96,13.64 -6.27,22.78 -3.13,8.62 -6.22,14.01 -9.64,21.31 -7.4,15.84 -16.59,35.74 11.35,34.11 9.62,-13.77 28.42,-57.98 36.22,-76.47l3.93 -12.25 -2.2 -0.09c-1.89,2.7 -0.21,1.17 -2.8,3.33 -1.24,1.03 -1.86,1.12 -3.22,1.88 -1.41,0.78 -3.13,1.71 -5.55,2.8z"/>
    <path class="fil17" d="M676 451.33l-3.18 2.99 -0.5 15.43 0.03 62.89c-4.28,3.25 -14.68,8.14 -20.52,11.65 -6.79,4.08 -12.99,7.29 -19.58,11.24 -13.82,8.27 -27.65,16.13 -40.49,23.25l-60.85 35.57c-5.85,3.17 -18.55,7.39 -12.4,15.85l161.73 -93.27 -0.11 -87.62 -4.13 2.01z"/>
    <path class="fil18" d="M516.41 659.59c8.81,-0.19 134.88,-76.48 156.01,-88.2 17.24,-9.56 17.38,-7.21 16.73,-19.17 -8.54,2.62 -134.05,76.43 -155.89,88.94 -9.28,5.31 -17.08,5.51 -16.85,18.43z"/>
    <path class="fil19" d="M253.13 546.81l0.34 2.18c8.45,6.73 22.38,13.7 31.4,18.82 10.81,6.14 20.9,12.33 30.94,18.05 11.53,6.57 55.4,34.31 63.69,35.84 0.9,-2.5 -1.86,-5.99 0.81,-15.11 -5.95,-1.48 -109.22,-60.64 -116.76,-66.67 -0.42,0.24 -0.88,0.65 -1.16,0.87l-9.25 6.03z"/>
    <path class="fil2" d="M231.04 649.04c-38,8.73 -16,40.98 21.06,33.9 11.29,-2.16 29.26,-11.94 18.13,-25.53 -6.53,-7.98 -25.62,-11.49 -39.19,-8.38z"/>
    <path class="fil10" d="M384.99 641.67c-0.36,-0.39 -1.7,1.8 -1.83,-2.48 -0.15,-4.68 -0.61,-0.21 1.17,-3.27l0.66 5.75zm-4.69 -35.08c-2.67,9.12 0.08,12.61 -0.81,15.11l2.56 5.5c-3.72,3.32 -6.66,4.03 -7.8,10.07 -2.37,12.52 6.47,29.09 16.98,34.17 -0.26,-4.93 0.48,-12.35 -0.32,-16.59 -1.52,-8.06 -4.58,-4.04 -5.92,-13.18l6.15 5.55 0.16 -9.65c5.3,5.03 1.39,4.83 2.62,18.99l7.76 -9.04c3.86,9.73 -8.97,6.5 -8.09,25.54 3.5,1.72 0.53,1.05 2.04,3.12l-0.04 18.79c1.76,-4.22 1.24,-13.47 1.97,-18.79 6.14,-3.64 9.27,-0.3 14.31,-8.07 -4.47,-6.26 2.49,-6.63 -9.55,-29.03 1.88,-4.66 0.17,-0.21 2.76,-2.14 1.12,-1.79 1.75,-2.75 2.64,-5.23 0.18,-0.49 0.56,-2.15 0.73,-2.62 1.33,-3.66 0.12,-1.15 1.52,-3.28l-3.19 -6.86 0.85 5.75c-3.46,-3.15 -0.12,2.14 -3.93,-4.73 -2.3,-4.15 -1.01,-5.53 -6.71,-10.89l-1.87 -1.6c-5.83,-4.58 -6.34,-3.65 -11.37,-3.31l-3.45 2.41z"/>
    <path class="fil4" d="M642.45 203.11c0.49,-23.74 -1.2,-16.27 3.5,-20.45 -0.13,23.02 1.38,16.2 -3.5,20.45zm20.95 -36.85c-6.36,-0.86 -24.76,10.51 -30.78,14.38 -15.11,9.7 -8.54,36.75 -7.05,38.15 3.71,3.48 25.42,-10.94 30.03,-13.8 14.29,-8.85 9.84,-33.82 7.8,-38.73z"/>
    <path class="fil20" d="M691.02 156.57c-2.12,8.68 -0.23,3.51 -4.16,5.77 1.29,-6.15 -0.84,-3.19 4.16,-5.77zm-22.12 40.12c3.48,-2.16 10.81,-4.79 14.61,-7.9 5.9,-4.83 0.9,-11.74 4.18,-19.28 3.44,2.69 4.01,-0.48 3.85,13.98 6.13,-2.31 12.26,-6.01 17.47,-10.22 0.11,-14.4 0.71,-9.73 -4.16,-17.96 4.04,-5.11 5.26,-6.87 3.3,-14.49 -8.99,-1.27 -24.69,10.77 -33.04,15.46 -10.19,5.73 -5.76,13.67 -6.22,40.41z"/>
    <path class="fil11" d="M540.03 248.86l22.16 -4.18c0.07,9.32 -2.72,5.88 -3.8,5.92 -0.07,0 0.4,-2.67 -7.65,1.5 -11.5,5.96 -11.92,3.68 -10.69,16.42 7.63,-0.25 27.6,-11.59 33.48,-16.61 0.39,-0.33 4.7,-4.73 4.74,-4.8 3.16,-4.71 1.89,-9.84 1.93,-15.88l-22.6 4.34c3.73,-10.47 0.4,-0.63 13.94,-8.48 7.32,-4.24 9.23,-3.3 8.29,-12.92 -9.32,0.58 -18.38,7.71 -25.96,11.86 -11.08,6.08 -13.47,8.93 -13.86,22.82z"/>
    <path class="fil21" d="M714.27 201.5c-1.26,5.07 0.73,10.4 1.08,17.45 0.35,6.86 0.08,13.87 -0.16,20.72 6.37,-3.27 27.04,-12.82 28.54,-18.41l0.72 -2.55c1.55,-8.7 -1.37,-27.56 1.26,-35.57 -5.62,2.29 -27.58,14.11 -31.44,18.35z"/>
    <path class="fil17" d="M258.74 465.24c8.32,6.84 29.92,17.44 40.97,23.92 13.7,8.04 28.55,16.3 42.78,24.19l84.06 47.28c4.67,0.58 4.29,0.1 7.69,-1.94l-177.91 -101.09c-0.03,5.07 0.25,4.85 2.4,7.65z"/>
    <path class="fil22" d="M516.73 453.87l2.53 0.65c5.15,1.62 3.05,0.47 4.92,3.5l6.52 3.22c3.92,1.35 2.76,0.43 4.8,3.27l7.09 3.07c8.08,1.36 3.21,0.26 5.23,3.18l5.56 2.37 5.19 4.3c6.3,2.77 16.45,7.57 20.94,13.41l1.17 -1.06 5.23 3.42 0.31 0.54 10.14 3.03c-2.94,-4.66 -1.32,-4.51 -1.85,-11.3 -10.6,-7 -82.52,-50 -89.83,-50.7l-0.11 11.31 12.17 7.79z"/>
    <path class="fil21" d="M542.66 300.75l0.31 29.4c-0.63,9.23 -0.85,6.83 -3.16,7.85l4.79 0.77c0.2,-0.03 4.19,-1.89 4.27,-1.93l23.59 -14.99c0.25,-11.26 -2.27,-28.82 1.57,-38.69 -5.2,1.94 -26.88,13.71 -31.36,17.59z"/>
    <path class="fil23" d="M107.29 549.01c0.08,-2.62 -2.27,-1.64 6.8,-6.84l31.01 -18.05c14.2,-7.34 28.81,-17.49 41.93,-24.06l-2.49 -11.31 -90.95 52.34c4.3,4.05 8.61,5.9 13.7,7.92z"/>
    <path class="fil24" d="M745.9 127.98l-14.22 7.55c0.77,-6.01 -0.17,-3.62 5.87,-6.89 0.77,-0.42 3.93,-2.27 4.19,-2.39 3.51,-1.61 1.13,-0.81 4.76,-1.22 2.3,-4.98 2.86,-5.15 1.36,-10.64l-34.01 19.49 -0.29 36.76c6.57,-2.36 14.41,-7.81 20.69,-11.21 8.4,-4.55 15.99,-5.46 13.62,-15.85 -4.94,3.14 -11.05,7.14 -16.61,8.9 0.78,-12.91 5.99,-10.3 15.61,-17l-0.95 -7.5z"/>
    <path class="fil25" d="M208.31 407.81l12.83 4.89c17.51,7.8 34.75,40.05 26.79,59.16 -3.25,7.8 -2.49,2.19 -6.48,8.38 2.77,5.57 5.98,8.79 8.83,13.99 12.08,21.99 9.66,36.84 2.85,52.58l9.25 -6.03c0.28,-0.21 0.75,-0.62 1.16,-0.87 -0.61,-5.23 -1.41,-1.85 1.44,-5.53 -1.64,-14.62 2.35,-17.46 -4.04,-34.23 -5.07,-13.31 -9.42,-16.83 -10.54,-19.24 -5.38,-11.55 -4.6,-3.49 1.06,-7.09 0.01,-0.44 0.69,-3.21 1.81,-4.63 2.96,-3.77 0.86,-2.64 5.48,-3.96 -2.16,-2.8 -2.44,-2.57 -2.4,-7.65l-0.25 -8.9 -2.77 -5.66c-0.63,-4.26 -2.32,-8.55 -4.54,-11.4 -2.63,-4.51 -2.61,-5.15 -5.3,-8.82 -2.1,-2.86 -2.43,-2.82 -4.38,-5.98l-2.31 -1.55c-9.06,-6.33 -10.73,-9.13 -23.41,-9.42l-5.05 1.95z"/>
    <path class="fil26" d="M220.22 547.52c-0.88,7.94 -0.52,16.14 -0.54,24.16 -0.01,3.82 -0.23,7.8 -0.23,11.52 -0.01,8.87 -1.56,7.87 4.24,11.37 3.02,-11.69 3.08,-30.92 0.93,-44.31 -3.27,-15.1 -0.33,-21.02 6.15,-30.35 2.59,-3.73 4.36,-6.19 7.51,-10.47 3.4,-4.62 5.86,-7.17 3.58,-12.95 -8.06,3.92 -7.98,13.74 -17.69,21.28 0.34,-11.55 3.79,-32.23 -2.1,-41.45 -1.3,1.71 -1.27,0.59 -2.09,5.5l-0.24 18.94c-3.29,-3.65 -5.64,-8.38 -8.44,-12.97 -11.07,-18.11 -3.13,-10.89 -10.84,-13.35 15.76,42.99 19.46,6.21 19.77,73.08z"/>
    <path class="fil20" d="M263.54 539.91c7.54,6.04 110.81,65.19 116.76,66.67l3.45 -2.41 0 -1.29c-19.47,-11.65 -40.25,-23.16 -60.1,-34.65 -10.15,-5.88 -20.36,-11.43 -29.96,-17.33 -9,-5.53 -20.46,-11.12 -28.72,-16.54 -2.85,3.68 -2.05,0.31 -1.44,5.53z"/>
    <path class="fil27" d="M443.29 675.53c-0.76,10.42 -2.56,31.47 0.84,40.24 4.3,1.45 2.79,1.19 7.08,-1.59 5.33,-43.77 -5.52,-26.34 -4.98,-46.14 0.47,-17.15 18.2,-22.96 14.99,-33.5 -6.26,1.26 -8.48,12.39 -14.62,16.97 -0.03,-8.63 3.53,-29.12 -3.15,-34.72l-0.92 20.05c-2.26,-2.57 -5.32,-7.88 -7.62,-11.82 -1.22,-2.09 -2.76,-5.64 -3.39,-6.4 -3.28,-3.99 0.94,-2.8 -4.83,-2.39 19.85,41.19 14.84,8.48 16.59,59.3z"/>
    <path class="fil20" d="M583.66 214.09c2.86,1.29 -0.37,1.4 4.67,0.35 0.15,-0.03 4.28,-1.87 4.66,-2.02l0.7 27.73 17 -9.57 0.36 -29c4.63,-3.41 4.4,-3.26 8.65,-5.08l0.18 -7.75c-0.67,0.2 -35.21,15.92 -36.22,25.33z"/>
    <path class="fil16" d="M579.5 490.83c-4.49,-5.83 -14.64,-10.63 -20.94,-13.41 -3.44,-1.84 -2.53,-1.23 -5.54,-2.48 -2.34,12.54 -8.9,12.65 -6,28.58 4.99,4.4 10.95,8.08 18.39,5.02 6.18,-2.54 7.89,-11.53 9.73,-16.87l4.36 -0.84z"/>
    <path class="fil17" d="M801.48 512.91l3.47 0.36 0.03 -135.08 -6.43 2.02c0.2,0.39 0.38,0.93 0.47,1.24l0.98 64.5c-0.08,19.49 -1.47,48.53 0.59,66.95l0.9 0.01z"/>
    <path class="fil17" d="M453.53 562.54c4.47,5.14 -0.79,1.23 6.28,3.48 -1.97,-17.66 -0.56,-42.79 -0.56,-61.28 0,-10.34 0,-20.68 0,-31.03 0,-6.07 2.82,-24.69 -3.17,-26.79 -2.12,2.71 -0.76,-0.16 -1.87,4.07l-0.68 111.55z"/>
    <path class="fil28" d="M828.87 349.7l0.67 11.97 11.83 -5.15c4.22,-4.28 11.49,-8.94 17.57,-9.6 3.07,-4.23 0.71,-1.63 5.38,-4.94 3.25,-2.3 3.14,-1.69 5.75,-4.12 -2.11,-3.78 -1.25,-5.49 -1.4,-11.03l-1.37 -0.11c-1.47,4.01 -0.49,2.16 -4.05,4.55l-34.38 18.43z"/>
    <path class="fil28" d="M750.53 395.13c0.34,5.88 0.58,8.88 -0.98,12.9l17.37 -9.18c1.48,-1.97 0.62,-1.19 2.83,-2.96 2.76,-2.2 -1.17,0.29 2.73,-1.17l11.05 -5.45c1.4,-1.8 0.74,-1.26 2.88,-2.9 3.27,-2.51 -3.92,1.28 2.84,-1.18 3.87,-0.6 1.32,0.37 2.23,-2.33l-1.04 -10.07 -1.22 -0.87 -4.74 4.56c-1.05,0.72 -4.16,2.28 -5.33,2.95 -3.1,1.77 -6.21,3.67 -9.19,5.48 -6.97,4.23 -12.13,7.42 -19.42,10.2z"/>
    <path class="fil29" d="M868.66 326.82c0.15,5.54 -0.71,7.25 1.4,11.03 6.86,-1.91 12.6,-6.37 19.18,-10.07l16.22 -10.61 1.02 -11.45c-15.78,6.52 -24.62,13.02 -37.82,21.09z"/>
    <path class="fil28" d="M671.36 438.72l0.2 2.4 0.95 10.25 3.48 -0.04 4.13 -2.01 9.61 -6.26 16.72 -9.9c1.78,-2.72 -1.02,-2.35 3.63,-1.97 1.31,-1.98 -1.15,-0.44 2.32,-2.93l-0.44 -9.95 -0.48 -1.8c-3.14,5.2 -1.25,2.33 -9.86,7.73 -7.04,4.41 -23.14,16.16 -30.28,14.48z"/>
    <path class="fil29" d="M790.43 372.8l1.04 10.07 7.07 -2.65 6.43 -2.02c3.02,-5.47 12.82,-9.43 19.06,-12.59 -1.29,-3.53 -2.29,-3.17 1.26,-2.44l4.24 -1.5 -0.67 -11.97 -0.61 -0.02c-0.29,0.27 -0.73,0.6 -0.94,0.74 -0.2,0.14 -0.7,0.54 -0.95,0.72l-35.94 21.67z"/>
    <path class="fil28" d="M594.5 485.47c0.53,6.79 -1.1,6.64 1.85,11.3l11.67 -5.64c2.68,-4.28 6.57,-6.19 11.57,-8.01l2.2 0.09 0.18 -2.72 3.34 -0.26c-0.48,-2.52 -0.91,-1.78 1.8,-1.78l3.16 -1.09 4.02 -3.18 -0.62 -9.73c-5.1,1.87 -14.89,7.35 -20.11,10.52 -6.03,3.65 -12.37,9.52 -19.06,10.49z"/>
    <path class="fil30" d="M711.97 418.31l0.44 9.95 3.47 -0.49 5.55 -2.53c0.28,-0.37 0.63,-1.46 0.82,-1.14 0.19,0.32 0.67,-0.85 0.94,-1.03 2.66,-1.82 0.31,-0.69 3.94,-2.03l5.74 -2.31c1.46,-1.94 0.79,-1.33 2.88,-3.11 2.91,-2.48 -3.03,1.25 2.77,-1.41l5.64 -2.11c1.55,-2 0.63,-1.17 2.83,-2.96 2.58,-2.09 -1.3,0.34 2.54,-1.1 1.56,-4.02 1.32,-7.02 0.98,-12.9l-0.26 0.2 -5.08 4c-1.73,1.09 -2.93,1.53 -5.08,2.86l-28.14 16.13z"/>
    <path class="fil30" d="M633.67 464.46l0.62 9.73 3.76 -0.05c3.68,-4.7 9.65,-6.92 16.16,-10.78 6,-3.56 10.58,-6.88 16.45,-9.05 1.42,-2.44 -0.29,-1.17 1.85,-2.93l-0.95 -10.25c-3.24,4.07 -30.63,17.66 -37.89,23.33z"/>
    <path class="fil25" d="M475.71 670.69l4.42 -4.24 0.16 -5.68c1.22,-15.19 -1.79,-24.77 -9.65,-37.26 -4.12,-6.55 -4.2,-6.5 -2.9,-10.57 -5.33,3.4 -7.03,5.14 -3.53,11.96 5.45,10.63 9.47,15.7 10.88,28.45 1.62,14.58 -4.2,18.56 0.62,17.33z"/>
    <path class="fil31" d="M475.71 670.69c-1.05,3.54 0.1,0.23 -1.3,3.79 -0.16,0.4 -0.61,1.89 -0.74,1.61 -0.14,-0.3 -0.55,1.15 -0.84,1.72 3.22,0.81 17.86,9.19 20.31,11.71 4.13,-3.52 3.32,6.39 3,-6.8l0 -6.53 -16.01 -9.73 -4.42 4.24z"/>
    <path class="fil32" d="M533.61 305.97c2.89,4.58 0.13,17.04 2.01,29.05l4.18 2.99c2.32,-1.02 2.53,1.37 3.16,-7.85l-0.31 -29.4 -9.04 5.22z"/>
    <path class="fil33" d="M829.53 361.67l-4.24 1.5c1.26,2.83 2.1,7.07 12.89,8.5 7.54,1 11.31,-1.22 13.06,-7.35 -3.38,-4.71 -4.75,-3.9 -9.88,-7.8l-11.83 5.15z"/>
    <path class="fil34" d="M707 206.6c2.02,4.78 -0.03,19.88 0.15,28.85l8.04 4.23c0.24,-6.86 0.51,-13.87 0.16,-20.72 -0.35,-7.05 -2.34,-12.38 -1.08,-17.45 -3.98,3.44 -4.76,1.52 -7.27,5.1z"/>
    <path class="fil35" d="M223.69 594.58l6.55 -2.24 0.06 -38.89 -5.68 -3.18c2.15,13.39 2.09,32.62 -0.93,44.31z"/>
    <path class="fil5" d="M545.18 385.47c0.23,-0.24 0.62,-0.62 0.84,-0.83l3.2 -2.37 -4.28 -3.35c-2.38,-2.02 -1.49,-0.79 -2.84,-3.17l-3.65 3.5c-0.15,0.11 -0.37,0.47 -0.5,0.53 -0.08,0.04 -0.33,0.13 -0.41,0.14l-4.57 -1.6 -3.91 10.47c2.76,1.34 5.63,3.33 8.16,4.93l7.97 -8.25z"/>
    <path class="fil20" d="M713.44 434.63l-0.58 19.7c12.15,-2.63 9.64,-9.62 8.84,-22.66l-8.26 2.96z"/>
    <path class="fil36" d="M384.99 641.67c1.33,9.14 4.4,5.11 5.92,13.18 0.8,4.24 0.06,11.66 0.32,16.59l-0.16 1.63 2.53 0c-0.88,-19.04 11.95,-15.81 8.09,-25.54l-7.76 9.04c-1.23,-14.16 2.68,-13.96 -2.62,-18.99l-0.16 9.65 -6.15 -5.55z"/>
    <path class="fil25" d="M411.87 668.12c4.54,-10.57 -0.63,-22.13 -5.6,-29.01l-1.18 -2.16c-2.6,1.93 -0.88,-2.52 -2.76,2.14 12.05,22.4 5.08,22.77 9.55,29.03z"/>
    <path class="fil37" d="M405.08 636.94l1.18 2.16c4.78,1.71 5.59,3.15 10.64,4.86l-4.19 -16.53 -2.73 -1.63c-1.41,2.14 -0.19,-0.38 -1.52,3.28 -0.17,0.47 -0.56,2.13 -0.73,2.62 -0.89,2.48 -1.52,3.44 -2.64,5.23z"/>
    <path class="fil38" d="M395.59 694.97l0.04 -18.79c-1.51,-2.07 1.46,-1.4 -2.04,-3.12l-2.53 0 0.41 22.99 4.12 -1.09z"/>
    <path class="fil39" d="M406.79 618.96l1.29 -1.4c-8.8,-10.09 -7.86,-15.74 -24.33,-14.66l0 1.29c5.02,-0.34 5.54,-1.28 11.37,3.31l1.87 1.6c5.7,5.36 4.41,6.74 6.71,10.89 3.81,6.87 0.48,1.58 3.93,4.73l-0.85 -5.75z"/>
    <path class="fil32" d="M566.41 198.34c2.21,2.01 3.5,2.99 6.72,4.55l4.74 -6.78 -3.02 -6.52c-0.29,0.33 -0.66,0.47 -0.78,1.08l-7.67 7.66z"/>
    <path class="fil40" d="M642.45 203.11c4.89,-4.26 3.37,2.57 3.5,-20.45 -4.7,4.18 -3.01,-3.29 -3.5,20.45z"/>
    <path class="fil41" d="M412.27 350.14c-1.34,8.26 5.97,8.12 8.32,8.65 -1.07,-7.74 -1.5,-9.91 -8.32,-8.65z"/>
    <path class="fil42" d="M745.9 127.98c0.28,-0.47 0.9,-1.82 0.91,-1.99 0,-0.06 -0.03,-0.53 -0.03,-0.59 -0,-0.05 -0.17,-0.26 -0.29,-0.36 -3.63,0.41 -1.25,-0.39 -4.76,1.22 -0.26,0.12 -3.42,1.97 -4.19,2.39 -6.04,3.27 -5.09,0.88 -5.87,6.89l14.22 -7.55z"/>
    <polygon class="fil24" points="409.98,625.81 412.71,627.44 411.9,619.44 408.08,617.55 406.79,618.96 "/>
    <path class="fil43" d="M608.02 491.13c2.42,-1.09 4.15,-2.02 5.55,-2.8 1.37,-0.76 1.98,-0.84 3.22,-1.88 2.59,-2.16 0.91,-0.63 2.8,-3.33 -5.01,1.83 -8.89,3.73 -11.57,8.01z"/>
    <path class="fil44" d="M749.48 632.09l6.49 -0.15 0.13 -4.92c-5.52,2.21 -3.46,1.05 -6.62,5.07z"/>
    <path class="fil42" d="M686.86 162.34c3.93,-2.26 2.04,2.91 4.16,-5.77 -5,2.58 -2.87,-0.37 -4.16,5.77z"/>
    <path class="fil45" d="M710.09 431.19l3.71 -0.63c5.33,-0.64 -0.42,0.07 2.08,-2.79l-3.47 0.49c-3.47,2.48 -1,0.95 -2.32,2.93z"/>
    <path class="fil45" d="M783.52 389.27l3.92 -1.15c4.24,-0.53 -0.27,0.06 1.81,-2.93 -6.76,2.46 0.43,-1.33 -2.84,1.18 -2.14,1.64 -1.48,1.1 -2.88,2.9z"/>
    <path class="fil46" d="M670.67 454.3l2.15 0.02 3.18 -2.99 -3.48 0.04c-2.14,1.76 -0.43,0.49 -1.85,2.93z"/>
    <path class="fil47" d="M384.99 641.67l-0.66 -5.75c-1.78,3.05 -1.32,-1.41 -1.17,3.27 0.13,4.28 1.47,2.09 1.83,2.48z"/>
    <path class="fil48" d="M732.88 418.73c5.01,-1.84 2.94,-0.51 5.66,-4.53 -5.8,2.66 0.14,-1.07 -2.77,1.41 -2.09,1.78 -1.43,1.17 -2.88,3.11z"/>
    <path class="fil48" d="M721.43 425.24c4.75,-1.64 -0.2,1.26 2.78,-1.12 2.49,-1.99 1.18,-0.74 2.92,-3.09 -3.63,1.35 -1.28,0.21 -3.94,2.03 -0.27,0.18 -0.75,1.35 -0.94,1.03 -0.2,-0.32 -0.54,0.77 -0.82,1.14z"/>
    <path class="fil49" d="M621.8 483.22c3.71,-1.25 2.33,-0.58 3.51,-2.98l-3.34 0.26 -0.18 2.72z"/>
    <path class="fil45" d="M766.91 398.85c6.97,-2.42 -0.65,1.63 2.76,-1.12 2.24,-1.8 1.28,-0.9 2.8,-3.01 -3.9,1.45 0.03,-1.04 -2.73,1.17 -2.21,1.77 -1.35,0.99 -2.83,2.96z"/>
    <path class="fil48" d="M744.17 412.09c6.46,-2.48 -0.82,1.69 2.71,-1.18 2.18,-1.78 1.38,-1.1 2.67,-2.88 -3.85,1.45 0.04,-0.99 -2.54,1.1 -2.2,1.79 -1.28,0.96 -2.83,2.96z"/>
    <path class="fil50" d="M547.81 470.75c-2.02,-2.92 2.85,-1.82 -5.23,-3.18l5.23 3.18z"/>
    <path class="fil50" d="M558.56 477.43l-5.19 -4.3 -0.34 1.82c3,1.26 2.09,0.64 5.54,2.48z"/>
    <path class="fil51" d="M706.39 434.19l3.71 -3c-4.65,-0.37 -1.85,-0.75 -3.63,1.97l-0.08 1.03z"/>
    <path class="fil45" d="M585.9 493.19l-5.23 -3.42c0,2.87 -0.76,2.23 1.97,2.23l3.25 1.19z"/>
    <path class="fil43" d="M625.31 480.23l4.96 -2.87 -3.16 1.09c-2.72,0 -2.28,-0.74 -1.8,1.78z"/>
    <path class="fil45" d="M524.17 458.01c-1.86,-3.02 0.24,-1.87 -4.92,-3.5l4.92 3.5z"/>
    <path class="fil45" d="M535.49 464.51c-2.04,-2.84 -0.88,-1.92 -4.8,-3.27l4.8 3.27z"/>
    <polygon class="fil52" points="256.08,448.69 253.31,443.04 "/>
   </g>
  </g>
 </g>
</svg>
