<?xml version="1.0" encoding="UTF-8"?>
<!DOCTYPE svg PUBLIC "-//W3C//DTD SVG 1.1//EN" "http://www.w3.org/Graphics/SVG/1.1/DTD/svg11.dtd">
<!-- Creator: CorelDRAW 2020 (64-Bit) -->
<svg xmlns="http://www.w3.org/2000/svg" xml:space="preserve" width="54.1222mm" height="29.3586mm" version="1.1" style="shape-rendering:geometricPrecision; text-rendering:geometricPrecision; image-rendering:optimizeQuality; fill-rule:evenodd; clip-rule:evenodd"
viewBox="0 0 5395.61 2926.85"
 xmlns:xlink="http://www.w3.org/1999/xlink"
 xmlns:xodm="http://www.corel.com/coreldraw/odm/2003">
 <defs>
  <style type="text/css">
   <![CDATA[
    .fil1 {fill:white}
    .fil0 {fill:white;fill-rule:nonzero}
   ]]>
  </style>
 </defs>
 <g id="Layer_x0020_1">
  <metadata id="CorelCorpID_0Corel-Layer"/>
  <g id="_2366357908576">
   <polygon class="fil0" points="1853.11,1902.51 2205.59,1902.51 2422.29,2257.89 2638.97,1902.51 2991.48,1902.51 2991.48,2913.77 2654.88,2913.77 2654.88,2412.48 2421.57,2772.2 2415.77,2772.2 2182.49,2412.48 2182.49,2913.77 1853.11,2913.77 "/>
   <polygon class="fil0" points="3107.07,1902.51 3445.11,1902.51 3445.11,2281.03 3732.58,1902.51 4125.54,1902.51 3773.03,2341.68 4132.73,2913.77 3729.68,2913.77 3531.79,2593.07 3445.11,2698.52 3445.11,2913.77 3107.07,2913.77 "/>
   <polygon class="fil0" points="4161.63,1902.51 4514.11,1902.51 4730.82,2257.89 4947.49,1902.51 5300.02,1902.51 5300.02,2913.77 4963.4,2913.77 4963.4,2412.48 4730.09,2772.2 4724.3,2772.2 4491.02,2412.48 4491.02,2913.77 4161.63,2913.77 "/>
   <path class="fil0" d="M1853.11 1775.78l0 -846.25 94.27 0 0 80.35c22.2,-31.05 47.33,-54.42 75.43,-69.93 27.89,-15.51 61.88,-23.37 101.77,-23.37 52.26,0 98.2,13.35 138.07,40.28 39.88,26.7 69.93,64.61 90.37,113.31 20.25,48.94 30.43,102.36 30.43,160.69 0,62.28 -11.19,118.47 -33.59,168.53 -22.37,49.91 -54.99,88.22 -97.8,114.95 -42.64,26.5 -87.61,39.85 -134.75,39.85 -34.59,0 -65.62,-7.26 -92.94,-21.8 -27.5,-14.52 -49.87,-32.79 -67.54,-54.99l0 298.39 -103.72 0zm94.27 -536.67c0,78.39 15.91,136.35 47.53,173.86 31.82,37.51 70.33,56.36 115.5,56.36 45.98,0 85.26,-19.44 117.88,-58.32 32.79,-38.92 49.1,-99.01 49.1,-180.52 0,-77.79 -15.91,-135.95 -47.93,-174.63 -32.02,-38.71 -70.13,-57.95 -114.51,-57.95 -44.01,0 -82.89,20.61 -116.68,61.68 -33.99,41.24 -50.89,100.97 -50.89,179.53z"/>
   <path class="fil0" d="M2489.54 1591.9l100.19 14.15c4.13,31.05 15.91,53.62 35.15,67.97 25.74,19.04 60.89,28.7 105.5,28.7 47.93,0 85.05,-9.66 111.18,-28.7 26.13,-19.03 43.82,-45.97 53.03,-80.32 5.33,-21.04 7.86,-65.24 7.46,-132.61 -45.37,53.43 -101.73,80.15 -169.3,80.15 -84.08,0 -149.3,-30.26 -195.27,-90.94 -46.14,-60.52 -69.14,-133.19 -69.14,-217.84 0,-58.35 10.62,-112.18 31.62,-161.48 21.04,-49.3 51.66,-87.21 91.74,-114.11 40.09,-26.93 87.22,-40.28 141.44,-40.28 72.07,0 131.58,29.46 178.36,88.38l0 -75.43 95.47 0 0 528.21c0,95.27 -9.65,162.64 -29.09,202.32 -19.24,39.69 -50.07,71.11 -91.91,94.11 -42.05,22.97 -93.71,34.55 -154.99,34.55 -72.9,0 -131.62,-16.31 -176.4,-49.1 -45,-32.63 -66.6,-81.93 -65.04,-147.74zm84.88 -366.93c0,79.95 15.92,138.3 47.74,175.02 31.98,36.76 71.87,55.2 119.8,55.2 47.73,0 87.61,-18.24 120.04,-54.8 32.18,-36.55 48.29,-93.9 48.29,-172.06 0,-74.67 -16.67,-131.03 -49.9,-168.94 -33.19,-37.91 -73.26,-56.79 -120,-56.79 -46.17,0 -85.25,18.67 -117.68,55.99 -32.18,37.32 -48.3,92.74 -48.3,166.38z"/>
   <path class="fil0" d="M3162.92 1541.24l0 -611.7 93.1 0 0 93.7c23.77,-43.41 45.77,-72.1 66.01,-85.85 20.24,-13.95 42.44,-20.81 66.61,-20.81 34.95,0 70.5,10.99 106.65,32.79l-36.95 95.67c-25.13,-14.15 -50.27,-21.2 -75.4,-21.2 -22.61,0 -42.85,6.86 -60.72,20.41 -17.87,13.58 -30.63,32.42 -38.31,56.59 -11.58,36.72 -17.28,77 -17.28,120.81l0 319.6 -103.72 0z"/>
   <path class="fil0" d="M3956.1 1464.64c-38.48,32.79 -75.6,55.76 -111.18,69.34 -35.55,13.55 -73.63,20.21 -114.51,20.21 -67.18,0 -118.84,-16.28 -154.99,-49.1 -36.12,-32.59 -54.19,-74.43 -54.19,-125.33 0,-29.86 6.86,-57.15 20.41,-81.89 13.75,-24.76 31.62,-44.4 53.62,-59.32 22.2,-14.94 46.98,-26.33 74.67,-33.99 20.4,-5.32 51.26,-10.42 92.31,-15.51 83.68,-9.85 145.56,-21.84 185.05,-35.59 0.4,-14.11 0.6,-23.17 0.6,-26.9 0,-42.04 -9.82,-71.7 -29.5,-88.98 -26.5,-23.37 -65.98,-34.98 -118.24,-34.98 -48.9,0 -85.05,8.65 -108.22,25.73 -23.41,17.11 -40.49,47.36 -51.67,90.98l-101.36 -14.16c9.22,-43.41 24.34,-78.59 45.57,-105.29 21.2,-26.73 51.86,-47.13 91.91,-61.68 39.89,-14.35 86.45,-21.6 139.08,-21.6 52.26,0 94.87,6.09 127.7,18.47 32.62,12.35 56.76,27.69 72.1,46.34 15.31,18.67 26.1,42.24 32.39,70.73 3.36,17.68 5.12,49.51 5.12,95.24l0 137.52c0,96.06 2.16,156.76 6.46,182.49 4.13,25.73 12.78,50.3 25.36,73.86l-108.45 0c-10.39,-21.8 -17.08,-47.33 -20.05,-76.59zm-8.21 -229.85c-37.71,15.34 -94.31,28.29 -169.74,38.91 -42.81,6.09 -73.07,12.95 -90.74,20.61 -17.68,7.69 -31.22,18.87 -40.88,33.42 -9.62,14.71 -14.52,31.02 -14.52,49.1 0,27.3 10.43,50.31 31.42,68.55 21.01,18.27 51.67,27.5 91.95,27.5 39.88,0 75.43,-8.62 106.65,-26.1 31.02,-17.32 54.03,-41.08 68.54,-71.14 11.23,-23.37 16.72,-57.72 16.72,-103.12l0.6 -37.71z"/>
   <path class="fil0" d="M4606.92 1541.24l0 -77.59c-38.71,60.31 -95.67,90.54 -170.9,90.54 -48.73,0 -93.5,-13.35 -134.15,-40.25 -40.87,-26.73 -72.5,-64.24 -95.11,-112.18 -22.36,-48.1 -33.59,-103.32 -33.59,-165.77 0,-60.88 10.22,-116.11 30.47,-165.81 20.44,-49.5 50.86,-87.58 91.54,-113.91 40.48,-26.53 86.05,-39.68 136.11,-39.68 36.96,0 69.75,7.86 98.44,23.37 28.66,15.51 52.03,35.95 70.1,60.88l0 -303.49 103.72 0 0 843.88 -96.63 0zm-327.65 -305.05c0,78.16 16.51,136.51 49.7,175.19 32.99,38.72 72.1,57.96 117.08,57.96 45.37,0 83.88,-18.44 115.7,-55.4 31.62,-36.92 47.53,-93.3 47.53,-169.13 0,-83.29 -16.11,-144.57 -48.53,-183.65 -32.22,-39.08 -72.1,-58.55 -119.44,-58.55 -46.14,0 -84.65,18.67 -115.67,56.19 -30.86,37.51 -46.37,96.63 -46.37,177.39z"/>
   <path class="fil0" d="M5284.83 1343.24l107.22 14.15c-16.68,62.25 -47.9,110.79 -93.47,145.17 -45.57,34.35 -103.73,51.63 -174.63,51.63 -89.18,0 -159.92,-27.5 -212.14,-82.49 -52.27,-54.79 -78.4,-131.99 -78.4,-231.19 0,-102.56 26.33,-182.32 79.16,-238.87 52.83,-56.76 121.41,-85.05 205.66,-85.05 81.52,0 148.13,27.69 199.79,83.28 51.66,55.59 77.59,133.75 77.59,234.55 0,6.09 -0.2,15.31 -0.6,27.5l-455.51 0c3.93,66.97 22.77,118.44 56.95,153.99 33.99,35.56 76.59,53.44 127.49,53.44 37.88,0 70.3,-10.02 97.04,-30.06 26.9,-20.05 48.1,-52.03 63.84,-96.04zm-339.44 -166.17l340.6 0c-4.53,-51.5 -17.68,-89.98 -39.08,-115.71 -32.83,-39.88 -75.64,-59.92 -128.1,-59.92 -47.53,0 -87.41,15.91 -119.8,47.73 -32.22,31.82 -50.1,74.43 -53.62,127.9z"/>
   <path class="fil1" d="M1402.12 0l-558.97 809.22 262.11 0 0 1311.83c0,105.48 -24.75,182.16 -74.27,230.06 -49.48,47.87 -112.39,71.8 -188.65,71.8 -77.92,0 -141.21,-22.31 -189.9,-66.94 -48.7,-44.62 -73.03,-118.89 -73.03,-222.75l0 -944.59 -579.43 833.57 0 93.97c0,146.07 20.28,270.23 60.84,372.47 40.61,102.26 97.8,185.84 171.63,250.77 73.87,64.92 163.13,112.39 267.82,142.41 104.7,30.02 220.31,45.03 346.91,45.03 126.61,0 241.42,-15.01 344.48,-45.03 103.05,-30.02 191.12,-77.49 264.16,-142.41 73.04,-64.93 129.42,-147.69 169.19,-248.33 39.77,-100.63 59.64,-221.55 59.64,-362.72l0 -1319.14 279.02 0 -561.56 -809.22z"/>
  </g>
 </g>
</svg>
